<svg width="788" height="265" viewBox="0 0 788 265" fill="none" xmlns="http://www.w3.org/2000/svg">
<path d="M682.631 176.625H686.567V187.548H688.085V176.625H692.039V175.407H682.631V176.625Z" fill="black"/>
<path d="M703.882 175.407L699.928 185.413L695.975 175.407H694.457V187.848H695.975V182.995L695.675 177.825L699.628 187.848H700.846L704.782 177.825L704.482 182.995V187.848H706V175.407H703.882Z" fill="black"/>
<path d="M139.982 47.1516L86.9262 22.0229V0L0 39.6342V54.7044L53.0735 79.939V101.909L139.982 62.1689V47.1516ZM76.7598 77.1508L13.5375 47.1516L63.2223 24.7052L126.445 54.7044L76.7598 77.1508Z" fill="black"/>
<path d="M123.832 111.72C129.337 111.66 134.808 112.592 139.982 114.473V82.4448H152.92V185.96H144.095L141.959 181.142C139.283 183.106 136.301 184.614 133.134 185.607C129.638 186.826 125.964 187.458 122.262 187.477C112.33 187.477 105.035 185.266 100.376 180.842C95.7159 176.419 93.3626 170.448 93.3156 162.931V135.437C93.3156 127.885 95.8219 122.026 100.817 117.914C105.812 113.803 113.454 111.72 123.762 111.72H123.832ZM110.93 173.854C114.079 176.198 117.913 177.439 121.838 177.383C128.182 177.613 134.464 176.073 139.982 172.936V124.638C135.21 122.497 130.014 121.466 124.785 121.62C112.466 121.62 106.3 125.738 106.288 133.973V163.972C106.181 165.885 106.548 167.795 107.358 169.532C108.168 171.268 109.395 172.777 110.93 173.925" fill="black"/>
<path d="M165.91 88.9917H178.83V101.909H165.91V88.9917ZM165.91 111.72H178.83V185.96H165.91V111.72Z" fill="black"/>
<path d="M212.047 187.477C204.669 187.477 198.939 185.471 194.856 181.46C192.858 179.527 191.282 177.201 190.227 174.628C189.173 172.055 188.664 169.292 188.731 166.513C188.626 163.544 189.367 160.607 190.867 158.043C193.762 153.466 202.375 149.09 216.707 144.914C225.002 142.637 229.785 140.661 231.056 139.02C232.044 137.899 232.757 136.564 233.139 135.12C233.315 133.627 233.386 132.123 233.351 130.62C233.277 128.365 232.386 126.214 230.844 124.567C229.168 122.608 225.549 121.638 219.954 121.62C212.071 121.62 207.235 123.132 205.446 126.155C204.438 128.103 203.963 130.282 204.069 132.473V135.702H191.626V132.349C191.626 125.291 193.979 120.061 198.686 116.661C203.393 113.262 210.488 111.591 219.972 111.65C229.385 111.65 236.122 113.791 240.181 118.073C244.241 122.355 246.253 128.461 246.218 136.39V167.537C246.218 171.348 246.712 173.801 247.665 174.93C248.618 176.06 250.701 176.695 253.86 176.695L252.342 186.595H249.73C245.159 186.595 241.734 185.713 239.493 183.948C236.991 181.791 235.195 178.932 234.339 175.742C231.226 180.878 226.332 184.691 220.59 186.454C217.791 187.227 214.897 187.602 211.994 187.565L212.047 187.477ZM218.489 153.843C211.959 155.749 207.44 157.637 204.934 159.507C203.71 160.426 202.73 161.63 202.078 163.014C201.426 164.398 201.122 165.92 201.192 167.448C201.106 168.927 201.383 170.404 201.998 171.751C202.613 173.098 203.549 174.274 204.722 175.178C207.147 176.959 210.098 177.878 213.106 177.789C216.094 177.824 219.071 177.401 221.931 176.536C224.53 175.704 226.962 174.419 229.115 172.742C231.076 171.321 232.535 169.312 233.28 167.007V145.831C229.079 149.651 223.988 152.357 218.472 153.702" fill="black"/>
<path d="M286.336 185.166C282.828 185.237 279.324 184.918 275.887 184.213C273.256 183.627 270.804 182.416 268.739 180.683C264.903 177.354 262.985 170.572 262.985 160.337V82.5154H275.905V160.46C275.905 166.248 276.776 170.025 278.517 171.789C280.282 173.554 283.812 174.436 289.301 174.436H291.578L290.06 185.166H286.336Z" fill="black"/>
<path d="M350.917 181.248C346.046 185.401 338.398 187.477 327.972 187.477C317.547 187.477 309.899 185.413 305.027 181.283C302.615 179.185 300.709 176.567 299.453 173.627C298.196 170.687 297.622 167.501 297.773 164.307V134.961C297.617 131.762 298.188 128.568 299.445 125.622C300.701 122.675 302.61 120.052 305.027 117.95C309.863 113.797 317.512 111.72 327.972 111.72C338.433 111.72 346.081 113.803 350.917 117.967C353.355 120.056 355.285 122.671 356.563 125.615C357.842 128.559 358.434 131.755 358.295 134.961V164.307C358.444 167.502 357.861 170.689 356.592 173.624C355.323 176.56 353.4 179.168 350.97 181.248H350.917ZM328.113 177.577C339.621 177.577 345.375 173.519 345.375 165.401V133.849C345.375 125.697 339.621 121.62 328.113 121.62C316.606 121.62 310.852 125.697 310.852 133.849V165.401C310.852 173.519 316.606 177.577 328.113 177.577Z" fill="black"/>
<path d="M377.392 201.559C383.043 203.446 388.981 204.33 394.936 204.171C401.855 204.171 406.691 202.865 409.48 200.253C412.269 197.642 413.628 193.583 413.628 188.095V177.983C411.211 180.001 408.309 181.351 405.209 181.901C401.845 182.722 398.399 183.16 394.936 183.207C376.51 183.207 367.297 175.442 367.297 159.913V135.879C367.297 128.338 369.591 122.455 374.18 118.232C378.769 114.009 385.682 111.868 394.919 111.809C398.798 111.848 402.632 112.633 406.215 114.12C410.098 115.656 412.569 117.279 413.61 119.026V111.72H426.53V184.23C426.53 192.983 424.23 200.136 419.629 205.688C415.028 211.241 407.591 214.012 397.319 214C387.047 214 379.44 213.082 374.498 211.247L377.392 201.559ZM413.628 131.661C413.628 124.955 408.062 121.608 396.931 121.62C385.8 121.632 380.228 125.938 380.216 134.537V161.907C380.216 169.519 385.788 173.319 396.931 173.307C402.969 173.478 408.876 171.53 413.628 167.801V131.661Z" fill="black"/>
<path d="M468.696 186.542C458.365 186.542 450.91 184.913 446.333 181.654C441.756 178.395 439.473 172.789 439.485 164.837V88.9564H452.599V111.72H471.149V121.938H452.581V164.007C452.581 168.648 453.905 171.736 456.588 173.254C459.271 174.772 463.93 175.513 470.584 175.513H472.049L470.655 186.542H468.696Z" fill="black"/>
<path d="M510.544 187.865C499.86 187.865 492.135 185.642 487.369 181.195C482.604 176.748 480.221 169.878 480.221 160.584V135.279C480.056 132.063 480.634 128.853 481.911 125.896C483.187 122.94 485.127 120.318 487.581 118.232C492.464 114.103 499.877 112.038 509.82 112.038C519.763 112.038 527.141 113.956 531.953 117.791C536.789 121.614 539.208 127.055 539.208 134.114V151.425H493.141V161.819C493.141 167.866 494.359 172.066 496.795 174.419C499.23 176.772 503.602 177.948 509.909 177.948C513.491 178.086 517.078 177.951 520.64 177.542C521.469 177.26 522.316 176.942 523.181 176.572C523.882 176.313 524.494 175.86 524.946 175.266C525.441 174.525 525.899 173.766 526.323 172.972C527.114 171.061 527.545 169.021 527.594 166.954H539.013C538.729 170.571 537.957 174.132 536.719 177.542C535.693 180.123 533.916 182.336 531.618 183.895C529.114 185.554 526.276 186.644 523.305 187.089C519.063 187.709 514.778 187.987 510.491 187.918L510.544 187.865ZM493.141 142.937H526.676V132.879C526.676 128.749 525.264 125.908 522.44 124.355C518.577 122.57 514.334 121.764 510.085 122.008C504.637 122.008 500.454 122.95 497.536 124.832C494.641 126.72 493.176 129.808 493.176 134.114L493.141 142.937Z" fill="black"/>
<path d="M577.914 187.865C563.017 187.865 553.692 182.689 549.939 172.336C548.808 169.251 548.246 165.987 548.28 162.701V134.943C548.184 131.747 548.851 128.573 550.226 125.685C551.601 122.798 553.644 120.279 556.187 118.338C561.47 114.185 568.601 112.109 577.579 112.109C589.039 112.109 596.923 114.585 601.23 119.538C604.618 123.385 606.313 129.067 606.313 136.584L593.958 137.749C593.958 131.238 592.793 127.002 590.428 125.008C588.063 123.014 584.003 122.008 578.073 122.008C572.142 122.008 567.853 123.05 565.135 125.114C562.417 127.179 561.27 130.585 561.27 135.279V163.813C561.27 168.848 562.688 172.466 565.524 174.666C568.365 176.872 572.742 177.966 578.691 177.966C584.639 177.966 588.539 177.189 590.587 175.636C592.634 174.083 593.852 170.554 594.258 165.048H606.225C605.501 173.466 603.065 179.395 598.935 182.695C594.805 185.995 587.833 187.777 577.967 187.777" fill="black"/>
<path d="M661.522 134.114C661.522 127.055 656.115 123.526 645.302 123.526C640.809 123.262 636.349 124.443 632.576 126.897C631.135 127.868 629.959 129.184 629.154 130.724C628.35 132.265 627.943 133.982 627.969 135.72V187.812H615.05V82.4801H627.969V121.92C632.676 116.414 639.918 113.662 649.696 113.662C662.063 113.662 669.853 117.973 673.065 126.597C674.016 129.214 674.483 131.982 674.442 134.767V187.901H661.522V134.114Z" fill="black"/>
<path d="M309.697 244.485H314.617V264.165H309.697V244.485ZM309 237.802C309 237.009 309.287 236.326 309.861 235.752C310.462 235.151 311.214 234.85 312.116 234.85C313.018 234.85 313.77 235.137 314.371 235.711C315 236.258 315.314 236.955 315.314 237.802C315.314 238.649 315 239.36 314.371 239.934C313.77 240.481 313.018 240.754 312.116 240.754C311.214 240.754 310.462 240.467 309.861 239.893C309.287 239.292 309 238.595 309 237.802Z" fill="black"/>
<path d="M330.261 249.938C329.305 248.599 328.02 247.929 326.407 247.929C325.751 247.929 325.109 248.093 324.48 248.421C323.852 248.749 323.537 249.282 323.537 250.02C323.537 250.621 323.797 251.059 324.316 251.332C324.836 251.605 325.492 251.838 326.284 252.029C327.077 252.22 327.924 252.425 328.826 252.644C329.756 252.835 330.617 253.15 331.409 253.587C332.202 253.997 332.858 254.571 333.377 255.309C333.897 256.047 334.156 257.058 334.156 258.343C334.156 259.518 333.897 260.516 333.377 261.336C332.885 262.129 332.229 262.771 331.409 263.263C330.617 263.755 329.715 264.11 328.703 264.329C327.692 264.548 326.681 264.657 325.669 264.657C324.139 264.657 322.731 264.438 321.446 264.001C320.162 263.564 319.014 262.771 318.002 261.623L321.282 258.548C321.911 259.259 322.581 259.846 323.291 260.311C324.029 260.748 324.918 260.967 325.956 260.967C326.312 260.967 326.681 260.926 327.063 260.844C327.446 260.762 327.801 260.625 328.129 260.434C328.457 260.243 328.717 260.01 328.908 259.737C329.127 259.436 329.236 259.095 329.236 258.712C329.236 258.029 328.977 257.523 328.457 257.195C327.938 256.867 327.282 256.607 326.489 256.416C325.697 256.197 324.836 256.006 323.906 255.842C323.004 255.651 322.157 255.364 321.364 254.981C320.572 254.571 319.916 254.011 319.396 253.3C318.877 252.589 318.617 251.605 318.617 250.348C318.617 249.255 318.836 248.312 319.273 247.519C319.738 246.699 320.339 246.029 321.077 245.51C321.815 244.991 322.663 244.608 323.619 244.362C324.576 244.116 325.546 243.993 326.53 243.993C327.842 243.993 329.141 244.225 330.425 244.69C331.71 245.127 332.749 245.893 333.541 246.986L330.261 249.938Z" fill="black"/>
<path d="M349.115 244.485H353.789V247.642H353.871C354.336 246.658 355.046 245.811 356.003 245.1C356.96 244.362 358.258 243.993 359.898 243.993C361.21 243.993 362.317 244.212 363.219 244.649C364.148 245.086 364.9 245.66 365.474 246.371C366.048 247.082 366.458 247.902 366.704 248.831C366.95 249.76 367.073 250.731 367.073 251.742V264.165H362.153V254.202C362.153 253.655 362.126 253.054 362.071 252.398C362.016 251.715 361.866 251.086 361.62 250.512C361.401 249.911 361.046 249.419 360.554 249.036C360.062 248.626 359.392 248.421 358.545 248.421C357.725 248.421 357.028 248.558 356.454 248.831C355.907 249.104 355.443 249.473 355.06 249.938C354.705 250.403 354.445 250.936 354.281 251.537C354.117 252.138 354.035 252.767 354.035 253.423V264.165H349.115V244.485Z" fill="black"/>
<path d="M371.174 254.325C371.174 252.767 371.447 251.359 371.994 250.102C372.568 248.817 373.333 247.724 374.29 246.822C375.247 245.92 376.381 245.223 377.693 244.731C379.005 244.239 380.399 243.993 381.875 243.993C383.351 243.993 384.745 244.239 386.057 244.731C387.369 245.223 388.503 245.92 389.46 246.822C390.417 247.724 391.168 248.817 391.715 250.102C392.289 251.359 392.576 252.767 392.576 254.325C392.576 255.883 392.289 257.304 391.715 258.589C391.168 259.846 390.417 260.926 389.46 261.828C388.503 262.73 387.369 263.427 386.057 263.919C384.745 264.411 383.351 264.657 381.875 264.657C380.399 264.657 379.005 264.411 377.693 263.919C376.381 263.427 375.247 262.73 374.29 261.828C373.333 260.926 372.568 259.846 371.994 258.589C371.447 257.304 371.174 255.883 371.174 254.325ZM376.094 254.325C376.094 255.09 376.217 255.828 376.463 256.539C376.736 257.25 377.119 257.878 377.611 258.425C378.13 258.972 378.745 259.409 379.456 259.737C380.167 260.065 380.973 260.229 381.875 260.229C382.777 260.229 383.583 260.065 384.294 259.737C385.005 259.409 385.606 258.972 386.098 258.425C386.617 257.878 387 257.25 387.246 256.539C387.519 255.828 387.656 255.09 387.656 254.325C387.656 253.56 387.519 252.822 387.246 252.111C387 251.4 386.617 250.772 386.098 250.225C385.606 249.678 385.005 249.241 384.294 248.913C383.583 248.585 382.777 248.421 381.875 248.421C380.973 248.421 380.167 248.585 379.456 248.913C378.745 249.241 378.13 249.678 377.611 250.225C377.119 250.772 376.736 251.4 376.463 252.111C376.217 252.822 376.094 253.56 376.094 254.325Z" fill="black"/>
<path d="M394.017 244.485H399.347L403.611 258.261H403.693L407.67 244.485H413L417.264 258.261H417.346L421.446 244.485H426.407L419.724 264.165H414.845L410.171 250.717H410.089L405.948 264.165H400.864L394.017 244.485Z" fill="black"/>
<path fill-rule="evenodd" clip-rule="evenodd" d="M500.081 218.869C497.152 218.869 494.734 221.075 494.342 223.934V246.762L472.037 218.869H462.375V264.188H466.927C470.075 264.188 472.626 261.632 472.72 258.455V235.372L495.772 264.188H504.686V218.869H500.081Z" fill="black"/>
<path fill-rule="evenodd" clip-rule="evenodd" d="M601.618 241.656V241.534C601.618 233.76 595.63 227.282 587.194 227.282C578.756 227.282 572.915 233.627 572.915 241.392V241.534C572.915 249.288 578.899 255.765 587.339 255.765C595.764 255.765 601.618 249.432 601.618 241.656ZM561.962 241.656V241.533C561.962 228.641 572.636 218.1 587.338 218.1C602.026 218.1 612.565 228.512 612.565 241.392V241.533C612.565 254.415 601.882 264.96 587.193 264.96C572.503 264.96 561.962 254.535 561.962 241.656Z" fill="black"/>
<path fill-rule="evenodd" clip-rule="evenodd" d="M686.78 245.219L693.105 230.521L699.431 245.219H686.78ZM698.07 218.543H688.408L667.999 264.188H674.87C677.268 264.188 679.327 262.699 680.21 260.591L683.029 254.009H703.17L706.023 260.673C706.926 262.741 708.953 264.188 711.324 264.188H718.467L698.07 218.543Z" fill="black"/>
<path fill-rule="evenodd" clip-rule="evenodd" d="M547.181 222.237C547.991 220.263 549.903 218.869 552.146 218.869H559.776L540.523 264.504H531.284L512.029 218.869H519.958C522.172 218.869 524.091 220.244 524.9 222.199L536.04 250.782L547.181 222.237Z" fill="black"/>
<path fill-rule="evenodd" clip-rule="evenodd" d="M450.479 258.294V218.869H440V264.188H444.679C447.874 264.188 450.479 261.548 450.479 258.294Z" fill="black"/>
<path fill-rule="evenodd" clip-rule="evenodd" d="M710.383 224.441C710.89 224.441 711.175 224.173 711.175 223.775C711.175 223.348 710.87 223.14 710.383 223.14H709.436V224.441H710.383ZM708.869 222.624H710.441C711.175 222.624 711.759 223.011 711.759 223.736C711.759 224.332 711.38 224.68 710.89 224.829L711.887 226.228H711.175L710.285 224.908H709.436V226.228H708.869V222.624ZM713.196 224.499V224.48C713.196 222.786 711.911 221.398 710.18 221.398C708.477 221.398 707.173 222.814 707.173 224.499V224.519C707.173 226.206 708.461 227.591 710.18 227.591C711.89 227.591 713.196 226.186 713.196 224.499ZM706.65 224.52V224.499C706.65 222.547 708.217 220.895 710.181 220.895C712.177 220.895 713.721 222.525 713.721 224.48V224.499C713.721 226.457 712.157 228.104 710.181 228.104C708.196 228.104 706.65 226.476 706.65 224.52Z" fill="black"/>
<path fill-rule="evenodd" clip-rule="evenodd" d="M658.973 253.348C658.25 252.573 657.215 252.08 656.066 252.08C655.252 252.08 654.493 252.321 653.855 252.765C651.001 254.685 647.968 255.8 644.359 255.8C636.319 255.8 630.539 249.444 630.539 241.666V241.542C630.539 233.765 636.187 227.286 644.359 227.286C648.492 227.286 651.405 228.49 654.213 230.482C654.89 231.001 655.724 231.311 656.632 231.311C657.781 231.311 658.806 230.826 659.539 230.041L659.542 230.044L663.558 226.188C658.653 221.203 653.212 218.086 644.017 218.086C629.99 218.086 619.571 228.391 619.571 241.421V241.542C619.571 254.43 629.786 265 644.431 265C653.417 265 658.798 262.157 663.219 257.994L658.974 253.347L658.973 253.348Z" fill="black"/>
<path fill-rule="evenodd" clip-rule="evenodd" d="M774.844 212.739C774.844 217.339 771.366 221.152 766.945 221.594L767.554 228.82L756.169 221.645H742.498C737.68 221.645 733.735 217.64 733.735 212.739V201.25C733.735 196.35 737.68 192.344 742.498 192.344H766.08C770.909 192.344 774.844 196.35 774.844 201.25V212.739ZM766.08 179H742.499C730.416 179 720.58 188.978 720.58 201.251V212.739C720.58 221.09 725.132 228.373 731.849 232.174L721.203 243.3L750.047 234.99H766.08C778.166 234.99 788 225.011 788 212.739V201.251C788 188.978 778.166 179 766.08 179V179Z" fill="#02B388"/>
</svg>
